<mxfile host="app.diagrams.net" modified="2021-04-04T08:32:32.556Z" agent="5.0 (Macintosh; Intel Mac OS X 11_1_0) AppleWebKit/537.36 (KHTML, like Gecko) Chrome/89.0.4389.90 Safari/537.36" etag="CfVQPtl3Y7yMZnf1efLF" version="14.4.9" type="github">
  <diagram id="r34wluWpsxFyCCqO_7R3" name="Page-1">
    <mxGraphModel dx="1186" dy="739" grid="1" gridSize="10" guides="1" tooltips="1" connect="1" arrows="1" fold="1" page="1" pageScale="1" pageWidth="827" pageHeight="1169" math="0" shadow="0">
      <root>
        <mxCell id="0" />
        <mxCell id="1" parent="0" />
        <mxCell id="j620gfFitnLkZStcP29S-69" value="" style="rounded=0;whiteSpace=wrap;html=1;" vertex="1" parent="1">
          <mxGeometry x="270" y="210" width="380" height="310" as="geometry" />
        </mxCell>
        <mxCell id="j620gfFitnLkZStcP29S-68" value="" style="rounded=0;whiteSpace=wrap;html=1;" vertex="1" parent="1">
          <mxGeometry x="667" y="490" width="160" height="280" as="geometry" />
        </mxCell>
        <mxCell id="j620gfFitnLkZStcP29S-1" value="Controller" style="rounded=1;whiteSpace=wrap;html=1;" vertex="1" parent="1">
          <mxGeometry x="98" y="360" width="80" height="40" as="geometry" />
        </mxCell>
        <mxCell id="j620gfFitnLkZStcP29S-2" value="" style="endArrow=classic;html=1;" edge="1" parent="1">
          <mxGeometry width="50" height="50" relative="1" as="geometry">
            <mxPoint x="8" y="370" as="sourcePoint" />
            <mxPoint x="98" y="370" as="targetPoint" />
          </mxGeometry>
        </mxCell>
        <mxCell id="j620gfFitnLkZStcP29S-3" value="Request" style="text;html=1;strokeColor=none;fillColor=none;align=center;verticalAlign=middle;whiteSpace=wrap;rounded=0;" vertex="1" parent="1">
          <mxGeometry x="28" y="350" width="40" height="20" as="geometry" />
        </mxCell>
        <mxCell id="j620gfFitnLkZStcP29S-4" value="" style="rounded=1;whiteSpace=wrap;html=1;" vertex="1" parent="1">
          <mxGeometry x="270" y="350" width="120" height="60" as="geometry" />
        </mxCell>
        <mxCell id="j620gfFitnLkZStcP29S-7" value="Service&lt;br&gt;(UseCase)" style="text;html=1;strokeColor=none;fillColor=none;align=center;verticalAlign=middle;whiteSpace=wrap;rounded=0;" vertex="1" parent="1">
          <mxGeometry x="310" y="370" width="40" height="20" as="geometry" />
        </mxCell>
        <mxCell id="j620gfFitnLkZStcP29S-9" value="" style="rounded=1;whiteSpace=wrap;html=1;" vertex="1" parent="1">
          <mxGeometry x="440" y="360" width="90" height="40" as="geometry" />
        </mxCell>
        <mxCell id="j620gfFitnLkZStcP29S-10" value="Entity" style="text;html=1;strokeColor=none;fillColor=none;align=center;verticalAlign=middle;whiteSpace=wrap;rounded=0;" vertex="1" parent="1">
          <mxGeometry x="465" y="370" width="45" height="20" as="geometry" />
        </mxCell>
        <mxCell id="j620gfFitnLkZStcP29S-14" value="" style="rounded=1;whiteSpace=wrap;html=1;" vertex="1" parent="1">
          <mxGeometry x="440" y="259" width="90" height="40" as="geometry" />
        </mxCell>
        <mxCell id="j620gfFitnLkZStcP29S-15" value="Entity" style="text;html=1;strokeColor=none;fillColor=none;align=center;verticalAlign=middle;whiteSpace=wrap;rounded=0;" vertex="1" parent="1">
          <mxGeometry x="465" y="269" width="40" height="20" as="geometry" />
        </mxCell>
        <mxCell id="j620gfFitnLkZStcP29S-16" value="" style="rounded=1;whiteSpace=wrap;html=1;" vertex="1" parent="1">
          <mxGeometry x="440" y="450" width="90" height="40" as="geometry" />
        </mxCell>
        <mxCell id="j620gfFitnLkZStcP29S-17" value="Entity" style="text;html=1;strokeColor=none;fillColor=none;align=center;verticalAlign=middle;whiteSpace=wrap;rounded=0;" vertex="1" parent="1">
          <mxGeometry x="465" y="460" width="40" height="20" as="geometry" />
        </mxCell>
        <mxCell id="j620gfFitnLkZStcP29S-21" value="DTO" style="text;html=1;strokeColor=none;fillColor=none;align=center;verticalAlign=middle;whiteSpace=wrap;rounded=0;" vertex="1" parent="1">
          <mxGeometry x="200" y="360" width="40" height="20" as="geometry" />
        </mxCell>
        <mxCell id="j620gfFitnLkZStcP29S-23" value="" style="endArrow=classic;startArrow=classic;html=1;entryX=0;entryY=0.5;entryDx=0;entryDy=0;exitX=1;exitY=0.5;exitDx=0;exitDy=0;" edge="1" parent="1" source="j620gfFitnLkZStcP29S-1" target="j620gfFitnLkZStcP29S-4">
          <mxGeometry width="50" height="50" relative="1" as="geometry">
            <mxPoint x="200" y="380" as="sourcePoint" />
            <mxPoint x="250" y="330" as="targetPoint" />
          </mxGeometry>
        </mxCell>
        <mxCell id="j620gfFitnLkZStcP29S-24" value="" style="endArrow=classic;startArrow=classic;html=1;" edge="1" parent="1">
          <mxGeometry width="50" height="50" relative="1" as="geometry">
            <mxPoint x="390" y="380" as="sourcePoint" />
            <mxPoint x="440" y="280" as="targetPoint" />
          </mxGeometry>
        </mxCell>
        <mxCell id="j620gfFitnLkZStcP29S-25" value="" style="endArrow=classic;startArrow=classic;html=1;exitX=1;exitY=0.5;exitDx=0;exitDy=0;entryX=0;entryY=0.5;entryDx=0;entryDy=0;" edge="1" parent="1" source="j620gfFitnLkZStcP29S-4" target="j620gfFitnLkZStcP29S-9">
          <mxGeometry width="50" height="50" relative="1" as="geometry">
            <mxPoint x="390" y="376" as="sourcePoint" />
            <mxPoint x="440" y="376" as="targetPoint" />
          </mxGeometry>
        </mxCell>
        <mxCell id="j620gfFitnLkZStcP29S-26" value="" style="endArrow=classic;startArrow=classic;html=1;exitX=1;exitY=0.5;exitDx=0;exitDy=0;" edge="1" parent="1" source="j620gfFitnLkZStcP29S-4">
          <mxGeometry width="50" height="50" relative="1" as="geometry">
            <mxPoint x="390" y="380" as="sourcePoint" />
            <mxPoint x="440" y="471" as="targetPoint" />
          </mxGeometry>
        </mxCell>
        <mxCell id="j620gfFitnLkZStcP29S-27" value="" style="endArrow=classic;html=1;exitX=0;exitY=0.5;exitDx=0;exitDy=0;" edge="1" parent="1" source="j620gfFitnLkZStcP29S-29">
          <mxGeometry width="50" height="50" relative="1" as="geometry">
            <mxPoint x="50" y="464.5" as="sourcePoint" />
            <mxPoint x="10" y="464.5" as="targetPoint" />
          </mxGeometry>
        </mxCell>
        <mxCell id="j620gfFitnLkZStcP29S-28" value="Response" style="text;html=1;strokeColor=none;fillColor=none;align=center;verticalAlign=middle;whiteSpace=wrap;rounded=0;" vertex="1" parent="1">
          <mxGeometry x="30" y="470" width="40" height="20" as="geometry" />
        </mxCell>
        <mxCell id="j620gfFitnLkZStcP29S-29" value="Presenter" style="rounded=1;whiteSpace=wrap;html=1;" vertex="1" parent="1">
          <mxGeometry x="80" y="450" width="80" height="30" as="geometry" />
        </mxCell>
        <mxCell id="j620gfFitnLkZStcP29S-34" value="" style="endArrow=classic;html=1;entryX=0.5;entryY=0;entryDx=0;entryDy=0;exitX=0.5;exitY=1;exitDx=0;exitDy=0;" edge="1" parent="1" source="j620gfFitnLkZStcP29S-1" target="j620gfFitnLkZStcP29S-29">
          <mxGeometry width="50" height="50" relative="1" as="geometry">
            <mxPoint x="160" y="400" as="sourcePoint" />
            <mxPoint x="210" y="350" as="targetPoint" />
          </mxGeometry>
        </mxCell>
        <mxCell id="j620gfFitnLkZStcP29S-35" value="DB" style="rounded=1;whiteSpace=wrap;html=1;" vertex="1" parent="1">
          <mxGeometry x="690" y="510" width="120" height="60" as="geometry" />
        </mxCell>
        <mxCell id="j620gfFitnLkZStcP29S-36" value="Logger" style="rounded=1;whiteSpace=wrap;html=1;" vertex="1" parent="1">
          <mxGeometry x="690" y="610" width="120" height="60" as="geometry" />
        </mxCell>
        <mxCell id="j620gfFitnLkZStcP29S-37" value="External" style="rounded=1;whiteSpace=wrap;html=1;" vertex="1" parent="1">
          <mxGeometry x="690" y="700" width="120" height="60" as="geometry" />
        </mxCell>
        <mxCell id="j620gfFitnLkZStcP29S-51" value="IOC Container" style="rounded=1;whiteSpace=wrap;html=1;" vertex="1" parent="1">
          <mxGeometry x="710" y="350" width="100" height="40" as="geometry" />
        </mxCell>
        <mxCell id="j620gfFitnLkZStcP29S-54" value="Repository" style="rounded=1;whiteSpace=wrap;html=1;" vertex="1" parent="1">
          <mxGeometry x="560" y="265" width="80" height="30" as="geometry" />
        </mxCell>
        <mxCell id="j620gfFitnLkZStcP29S-56" value="Repository" style="rounded=1;whiteSpace=wrap;html=1;" vertex="1" parent="1">
          <mxGeometry x="560" y="365" width="80" height="30" as="geometry" />
        </mxCell>
        <mxCell id="j620gfFitnLkZStcP29S-57" value="Repository" style="rounded=1;whiteSpace=wrap;html=1;" vertex="1" parent="1">
          <mxGeometry x="560" y="455" width="80" height="30" as="geometry" />
        </mxCell>
        <mxCell id="j620gfFitnLkZStcP29S-58" value="" style="endArrow=classic;startArrow=classic;html=1;entryX=0;entryY=0.5;entryDx=0;entryDy=0;" edge="1" parent="1" target="j620gfFitnLkZStcP29S-54">
          <mxGeometry width="50" height="50" relative="1" as="geometry">
            <mxPoint x="530" y="280" as="sourcePoint" />
            <mxPoint x="580" y="230" as="targetPoint" />
          </mxGeometry>
        </mxCell>
        <mxCell id="j620gfFitnLkZStcP29S-60" value="" style="endArrow=classic;startArrow=classic;html=1;entryX=0;entryY=0.5;entryDx=0;entryDy=0;movable=0;resizable=0;rotatable=0;deletable=0;editable=0;connectable=0;" edge="1" parent="1" source="j620gfFitnLkZStcP29S-9" target="j620gfFitnLkZStcP29S-56">
          <mxGeometry width="50" height="50" relative="1" as="geometry">
            <mxPoint x="530" y="380" as="sourcePoint" />
            <mxPoint x="580" y="330" as="targetPoint" />
          </mxGeometry>
        </mxCell>
        <mxCell id="j620gfFitnLkZStcP29S-65" value="" style="endArrow=classic;startArrow=classic;html=1;entryX=0;entryY=0.5;entryDx=0;entryDy=0;exitX=1;exitY=0.5;exitDx=0;exitDy=0;" edge="1" parent="1" source="j620gfFitnLkZStcP29S-16" target="j620gfFitnLkZStcP29S-57">
          <mxGeometry width="50" height="50" relative="1" as="geometry">
            <mxPoint x="530" y="470" as="sourcePoint" />
            <mxPoint x="580" y="420" as="targetPoint" />
          </mxGeometry>
        </mxCell>
        <mxCell id="j620gfFitnLkZStcP29S-70" value="" style="endArrow=classic;startArrow=classic;html=1;exitX=1.003;exitY=0.526;exitDx=0;exitDy=0;exitPerimeter=0;entryX=0;entryY=0.5;entryDx=0;entryDy=0;" edge="1" parent="1" source="j620gfFitnLkZStcP29S-69" target="j620gfFitnLkZStcP29S-51">
          <mxGeometry width="50" height="50" relative="1" as="geometry">
            <mxPoint x="660" y="365" as="sourcePoint" />
            <mxPoint x="710" y="315" as="targetPoint" />
          </mxGeometry>
        </mxCell>
        <mxCell id="j620gfFitnLkZStcP29S-71" value="" style="endArrow=classic;startArrow=classic;html=1;entryX=0.5;entryY=1;entryDx=0;entryDy=0;exitX=0.5;exitY=0;exitDx=0;exitDy=0;" edge="1" parent="1" source="j620gfFitnLkZStcP29S-68" target="j620gfFitnLkZStcP29S-51">
          <mxGeometry width="50" height="50" relative="1" as="geometry">
            <mxPoint x="390" y="460" as="sourcePoint" />
            <mxPoint x="440" y="410" as="targetPoint" />
          </mxGeometry>
        </mxCell>
      </root>
    </mxGraphModel>
  </diagram>
</mxfile>
